HIERARCHY
ROOT Hips
{
  OFFSET 13.6774 106.653 -34.4427
  CHANNELS 6 Xposition Yposition Zposition Zrotation Xrotation Yrotation
  JOINT ToSpine
  {
    OFFSET -2.69724 7.43032 -0.144315
    CHANNELS 3 Zrotation Xrotation Yrotation
    JOINT Spine
    {
      OFFSET -0.0310711 10.7595 1.96963
      CHANNELS 3 Zrotation Xrotation Yrotation
      JOINT Spine1
      {
        OFFSET 19.9056 3.91189 0.764692
        CHANNELS 3 Zrotation Xrotation Yrotation
        JOINT Neck
        {
          OFFSET 25.9749 7.03908 -0.130764
          CHANNELS 3 Zrotation Xrotation Yrotation
          JOINT Head
          {
            OFFSET 9.52751 0.295786 -0.907742
            CHANNELS 3 Zrotation Xrotation Yrotation
            End Site
            {
              OFFSET 16.4037 0.713936 2.7358
            }
          }
        }
        JOINT LeftShoulder
        {
          OFFSET 17.7449 4.33886 11.7777
          CHANNELS 3 Zrotation Xrotation Yrotation
          JOINT LeftArm
          {
            OFFSET 0.911315 1.27913 9.80584
            CHANNELS 3 Zrotation Xrotation Yrotation
            JOINT LeftForeArm
            {
              OFFSET 28.6126 1.18197 -3.53199
              CHANNELS 3 Zrotation Xrotation Yrotation
              JOINT LeftHand
              {
                OFFSET 27.5088 0.0218783 0.327423
                CHANNELS 3 Zrotation Xrotation Yrotation
                End Site
                {
                  OFFSET 18.6038 -0.000155887 0.382096
                }
              }
            }
          }
        }
        JOINT RightShoulder
        {
          OFFSET 17.1009 2.89543 -12.2328
          CHANNELS 3 Zrotation Xrotation Yrotation
          JOINT RightArm
          {
            OFFSET 1.4228 0.178766 -10.211
            CHANNELS 3 Zrotation Xrotation Yrotation
            JOINT RightForeArm
            {
              OFFSET 28.733 1.87905 2.64907
              CHANNELS 3 Zrotation Xrotation Yrotation
              JOINT RightHand
              {
                OFFSET 27.4588 0.290562 -0.101845
                CHANNELS 3 Zrotation Xrotation Yrotation
                End Site
                {
                  OFFSET 17.8396 -0.255518 -0.000602873
                }
              }
            }
          }
        }
      }
    }
  }
  JOINT LeftUpLeg
  {
    OFFSET -5.61296 -2.22332 -10.2353
    CHANNELS 3 Zrotation Xrotation Yrotation
    JOINT LeftLeg
    {
      OFFSET 2.56703 -44.7417 -7.93097
      CHANNELS 3 Zrotation Xrotation Yrotation
      JOINT LeftFoot
      {
        OFFSET 3.16933 -46.5642 -3.96578
        CHANNELS 3 Zrotation Xrotation Yrotation
        JOINT LeftToeBase
        {
          OFFSET 0.346054 -6.02161 12.8035
          CHANNELS 3 Zrotation Xrotation Yrotation
          End Site
          {
            OFFSET 0.134235 -1.35082 5.13018
          }
        }
      }
    }
  }
  JOINT RightUpLeg
  {
    OFFSET -5.7928 -1.72406 10.6446
    CHANNELS 3 Zrotation Xrotation Yrotation
    JOINT RightLeg
    {
      OFFSET -2.57161 -44.7178 -7.85259
      CHANNELS 3 Zrotation Xrotation Yrotation
      JOINT RightFoot
      {
        OFFSET -3.10148 -46.5936 -4.03391
        CHANNELS 3 Zrotation Xrotation Yrotation
        JOINT RightToeBase
        {
          OFFSET -0.0828122 -6.13587 12.8035
          CHANNELS 3 Zrotation Xrotation Yrotation
          End Site
          {
            OFFSET -0.131328 -1.35082 5.13018
          }
        }
      }
    }
  }
}
MOTION
Frames: 19
Frame Time: 0.03333333333333333
0.0000 93.1000 0.0000 -66.5610 -22.0951 -175.3829 -70.9603 -0.0224 87.8884 105.9849 70.3678 -16.0444 -1.3926 21.4766 0.5670 -149.8186 -10.1218 -158.4392 -151.6596 26.9182 -168.2593 0.3637 -9.4746 -29.8350 -80.2240 44.0658 -87.8092 31.2379 -2.6911 -92.8088 -0.4615 0.4850 -0.2667 -1.9985 5.7196 43.9636 -72.6579 -42.3948 65.7964 9.6498 -5.9999 62.1341 0.1533 -0.6572 0.5751 -54.5184 18.8417 104.7824 -2.0043 35.9215 1.8792 -7.2599 10.7383 0.4153 4.4320 -13.0962 5.3304 -31.0721 -26.3098 66.0518 1.9420 49.1108 -4.2398 -6.6600 -19.6888 0.9034 3.1075 -11.8806 -30.4130 
0.0000 93.1000 0.0000 -65.2697 -28.0064 -172.5048 -71.1422 0.0605 87.9376 102.1066 71.0486 -10.9639 -0.1686 21.3317 1.5943 -150.8911 -9.2706 -159.0897 -152.2445 28.6042 -168.2639 0.6937 -10.1730 -30.6240 -73.0248 46.9174 -91.7202 27.9865 -2.6268 -94.5834 -0.0473 0.0179 -0.5094 -2.1241 5.5158 43.6492 -76.7805 -41.8685 61.9677 10.3109 -6.3074 62.7132 0.2580 -0.1376 0.3320 -55.3320 17.5704 108.0740 -1.8354 34.9094 2.5397 -6.8628 4.3485 0.4166 5.6216 -12.5137 0.7890 -35.9068 -27.2414 67.4380 -0.0379 44.0110 -9.0951 -8.9662 -21.0450 0.9579 2.2525 -14.8444 -23.5911 
0.0000 93.1000 0.0000 -66.2565 -33.9545 -170.0518 -71.2004 0.2489 87.8897 98.9793 71.9797 -9.4602 0.9849 21.7147 1.3081 -151.8374 -7.8065 -161.1564 -152.5395 29.6606 -169.0635 0.8391 -10.5112 -30.0940 -66.1788 47.7361 -93.5723 27.1832 -2.7925 -93.7956 -0.0701 -0.0198 -0.1595 -2.0780 5.6656 42.3800 -79.0536 -40.8165 61.0044 13.7259 -7.9138 62.4279 0.0192 -0.0188 0.2343 -55.8630 15.1383 110.6517 -1.4403 33.4326 -4.4542 -4.5074 -0.4476 -0.1100 5.3666 -13.6618 3.2007 -41.1607 -25.8975 72.0967 0.0406 37.9414 -9.8544 -10.3801 -20.7909 1.1417 1.3462 -14.2700 -24.8427 
0.0000 93.1000 0.0000 -65.1528 -41.1254 -166.1268 -71.3134 0.6821 88.0376 93.0485 71.8150 -6.6960 1.7505 20.9771 2.2923 -150.5053 -6.0794 -165.4230 -150.6863 31.8501 -169.4136 0.9466 -10.7168 -29.9419 -65.0730 49.7268 -90.2821 28.7774 -0.9252 -89.9100 -0.1575 0.0331 0.0468 -1.6760 5.3158 42.2101 -79.1844 -42.1090 61.7665 16.2253 -9.8249 59.8419 0.0083 -0.0610 0.4244 -54.3952 11.9648 106.0995 -2.7026 34.7892 -9.4010 -0.3842 -3.6666 -1.2197 5.4231 -13.8622 5.2703 -45.6045 -22.4674 79.8215 -0.3877 34.0861 -5.3304 -10.6249 -19.7935 1.5341 1.9337 -14.6603 -25.9494 
0.0000 93.1000 0.0000 -62.1724 -48.6424 -160.8624 -71.3556 0.0461 87.8282 91.1451 71.2257 -4.4479 2.4206 19.9300 2.2546 -151.6833 -4.3314 -169.9643 -150.6750 33.9785 -170.6432 0.4086 -11.2269 -29.7981 -66.1715 48.8788 -85.2994 27.1514 2.2806 -84.9824 -0.0285 0.0474 0.0771 -2.0301 5.4722 41.6523 -79.5960 -42.0553 64.1963 17.7706 -12.4329 56.7151 -0.2940 -0.1355 0.1937 -51.2603 7.2094 97.4815 -3.2403 37.9602 -8.3566 1.8540 -7.8771 -1.3890 4.3701 -11.9329 7.3986 -47.9078 -18.2084 86.4138 0.7467 38.1475 -3.2555 -10.4721 -16.2936 0.9950 2.2382 -18.1367 -24.5709 
0.0000 93.1000 0.0000 -59.3856 -52.1345 -155.8205 -71.4331 -0.2854 87.7984 87.0449 71.2950 0.4916 3.9184 20.7091 1.0339 -152.6955 -2.2810 -171.7816 -150.7152 36.4953 -170.7085 -0.0285 -12.0505 -29.8963 -71.0529 48.5230 -78.9703 26.9923 5.6791 -79.2261 -0.0637 0.5320 0.2669 -1.7588 4.8956 41.2382 -77.8484 -43.4022 66.9631 16.4247 -12.9339 54.6222 -0.0420 -0.7030 0.0420 -51.7292 2.8419 93.7682 -2.8131 36.1153 -6.2252 2.9908 -9.3665 -1.9932 2.9891 -9.6912 9.0662 -48.8803 -11.2705 92.5922 0.9642 41.1488 -1.0716 -9.4569 -13.5977 0.9072 2.4980 -16.2917 -22.1582 
0.0000 93.1000 0.0000 -54.8695 -55.1547 -149.9264 -71.5883 -0.4488 87.6276 85.0846 71.9080 0.7573 4.1638 21.5439 0.0929 -154.2208 -0.0492 -173.7126 -150.5833 39.0265 -170.3409 -0.1531 -12.8312 -30.6914 -78.0674 46.9773 -71.0119 26.0999 8.3746 -72.6387 -0.4067 0.2535 0.5216 -2.0882 5.2064 41.0251 -74.9963 -43.4308 68.8410 16.5218 -14.2106 52.6876 -0.0101 -0.2998 -0.2900 -52.8124 -0.0792 91.8619 -3.3837 35.7257 -5.8530 5.1015 -12.6039 -1.9283 1.5023 -7.2032 8.4033 -47.0409 -6.7400 95.1832 1.4568 44.8501 0.1907 -9.0698 -10.5390 0.3764 2.3807 -17.1593 -18.1897 
0.0000 93.1000 0.0000 -49.3702 -60.0488 -142.1169 -71.2646 -3.1253 87.6923 90.3543 72.0273 -4.9759 1.4445 21.0839 -0.2015 -155.6728 3.1325 -175.1019 -152.5137 41.7994 -168.9756 -1.5481 -12.7457 -29.8178 -80.4640 45.3541 -67.9956 24.0662 9.7108 -67.9312 0.0214 -0.2455 -0.0380 -4.7255 5.9072 41.5970 -73.0609 -42.9466 70.1763 19.7552 -14.9343 51.9316 -1.4329 0.2331 -2.2951 -52.7650 -1.9933 91.0600 -1.4507 35.0259 -10.0384 5.2868 -13.6230 0.3287 1.9013 -7.7635 7.9809 -46.0890 -2.4467 96.2857 2.0735 47.8238 -0.7745 -8.4087 -9.5489 -2.6247 0.9574 -17.9065 -15.4823 
0.0000 93.1000 0.0000 -36.6341 -63.8542 -127.4605 -71.3185 -0.7806 87.5796 87.1783 70.8353 -2.6514 2.7467 20.0299 0.5168 -155.8404 6.0505 181.6152 -152.4194 45.1737 -169.4569 -0.2711 -12.6094 -28.8619 -82.4711 41.9834 -66.8578 23.0315 9.8116 -66.6405 -0.2025 0.0746 0.2537 -2.6845 5.3682 42.0974 -72.9591 -43.6031 69.9731 18.5390 -15.6642 51.9158 -0.1058 -0.0659 -0.7439 -53.3125 -3.0721 92.5450 -1.7528 34.0940 -17.7679 6.1926 -11.5676 -1.4048 1.5078 -7.3086 9.4363 -44.9577 2.9161 94.9678 2.0909 46.9158 -0.4694 -7.7066 -5.5842 -0.3325 1.3875 -17.9216 -20.0985 
0.0000 93.1000 0.0000 -20.2960 -65.9869 -106.8634 -71.2580 -0.8142 87.5864 86.4500 70.1018 -2.0454 2.4443 19.0603 -0.6063 -155.9401 8.9562 175.1007 -152.7798 48.6865 -169.2003 -0.3875 -12.9344 -29.1321 -83.0651 39.8089 -67.8836 22.4786 10.4039 -66.9028 -0.3380 0.1651 0.3905 -2.7380 5.4314 41.8741 -71.0468 -44.3405 69.0256 16.6615 -15.1472 49.6073 -0.3294 -0.0912 -0.7242 -53.1259 -3.8518 95.0547 -1.1518 32.9116 -20.3176 6.3403 -12.3808 -1.4325 1.5081 -7.0757 11.3415 -41.3368 5.1977 93.1795 1.9534 46.4036 0.5597 -7.8892 -2.4614 -0.3856 0.7370 -19.0135 -17.9639 
0.0000 93.1000 0.0000 -4.0355 -65.0746 -90.0248 -71.3391 -0.3908 87.7400 88.9668 69.2108 -3.7703 2.1352 18.8203 -0.1642 -156.0096 12.5597 174.1347 -152.1017 51.8978 -168.5725 -0.0703 -13.0332 -28.6554 -84.1140 37.0173 -69.8539 23.3945 10.3732 -67.9390 -0.1042 0.1729 0.3867 -2.2785 5.0894 42.0416 -69.6232 -44.9722 69.1485 15.0522 -14.8945 48.5513 -0.2393 -0.0642 -0.1694 -52.9146 -6.0271 93.2355 -2.1825 32.6950 -14.1227 4.4361 -12.8055 -1.6105 2.8413 -10.8918 14.7388 -36.1694 5.9869 90.1086 1.5524 45.7740 1.7767 -7.5244 -0.6534 -0.0663 1.9066 -21.2866 -17.8163 
0.0000 93.1000 0.0000 10.9191 -62.7559 -73.1074 -71.3644 -0.2220 87.7842 93.8809 68.3966 -7.9093 1.0892 18.0421 0.6318 -157.1316 16.0588 172.6900 -151.2408 55.8319 -170.0882 0.2902 -13.5380 -29.9794 -85.5675 34.7600 -73.7758 23.2993 8.8231 -70.1211 -0.2408 -0.4963 0.5317 -2.5830 5.3100 41.8890 -68.2910 -44.7600 69.1815 13.8439 -13.9677 46.9758 -0.8084 0.7569 -0.4017 -51.9414 -7.8197 92.3067 -2.3987 37.0466 -8.5526 3.9956 -15.3343 -1.0689 4.1767 -13.8521 17.6345 -29.1660 4.9627 86.7632 1.4686 47.3311 2.2431 -6.0091 -3.8324 -0.4456 1.3900 -18.9367 -17.7685 
0.0000 93.1000 0.0000 22.7943 -59.0400 -59.9161 -71.2224 -0.8979 87.6411 100.2192 67.8394 -14.8356 -0.7116 17.0959 1.4215 -158.0059 20.3080 169.3208 -148.2882 59.1871 -174.5797 -0.3551 -14.1437 -31.0001 -87.1517 31.7179 -76.7812 23.6437 5.8188 -74.5838 -0.3341 -0.2478 0.4022 -2.8937 5.0557 43.2080 -67.0003 -44.9182 67.8706 12.2995 -13.1405 44.8025 -1.0007 0.3936 -0.8814 -50.3798 -8.1730 94.9737 -3.3616 43.1131 -7.5896 2.8058 -19.1304 -1.1216 5.5988 -14.9217 16.0771 -21.1429 4.9247 84.9433 1.9211 48.9605 2.5562 -6.9282 -3.9104 -0.6699 1.5898 -20.0428 -20.8287 
0.0000 93.1000 0.0000 31.8686 -55.1132 -48.1124 -71.3473 -0.1554 87.5382 108.0856 65.8207 -24.7734 -1.7243 16.5690 3.2300 -160.0916 22.8493 165.1019 -145.7878 61.1623 -179.1964 -0.0912 -14.7424 -31.9092 -88.6660 28.9832 -83.7759 22.6767 4.6695 -78.8537 -0.4583 -0.1945 0.0568 -2.4267 4.9311 46.2216 -63.7818 -43.0310 68.8195 11.4571 -14.1409 41.3459 -0.5507 0.2689 -0.5103 -49.5394 -8.1286 93.1345 -4.7746 50.7955 -8.3410 2.3017 -24.4277 -1.9962 4.9893 -13.7606 13.0032 -14.9607 4.1844 82.9675 2.6839 51.0356 0.7049 -7.4797 -4.7830 0.2069 1.5957 -21.2159 -20.6268 
0.0000 93.1000 0.0000 38.6364 -51.6379 -39.8337 -71.1082 1.6846 87.7305 117.3189 64.2605 -34.4776 -3.1603 16.1073 5.3398 -164.1206 25.0638 162.9386 -145.4748 62.8913 -180.0522 1.0835 -15.2599 -30.6045 -89.4514 28.9201 -89.7228 22.5156 1.5879 -83.9406 0.4926 -0.7064 -0.7349 -1.5801 4.9518 46.2187 -59.3076 -43.0254 72.2257 11.1624 -14.9652 37.7194 0.4478 0.7886 0.1578 -51.9940 -6.8028 90.2738 -6.7045 57.3440 -12.2048 4.7133 -25.8674 -3.4972 6.0789 -15.7145 12.9167 -8.8930 3.1205 81.0644 2.8804 52.2848 3.0437 -6.2735 -3.8680 1.8162 1.4419 -23.8599 -22.6277 
0.0000 93.1000 0.0000 41.6607 -47.0770 -34.6015 -71.1779 0.4766 87.9281 116.1123 64.0158 -32.9278 -3.3307 15.3842 7.0364 -165.9924 26.9946 162.1580 -141.9868 64.3150 174.0051 0.0210 -15.0641 -27.9538 -87.3502 31.0123 -96.4571 24.7412 1.3746 -86.1128 0.3610 0.3514 -0.0021 -1.6574 5.2871 45.1053 -63.0022 -42.6861 67.7337 13.8004 -17.9115 39.6760 1.0455 -0.3356 0.9278 -55.4012 -5.9890 88.1149 -7.2371 54.8137 -20.1634 5.3234 -28.7170 -4.1657 7.2977 -17.3644 16.9684 -3.1100 0.1897 79.0438 2.5630 51.1163 5.3173 -4.3505 -0.3698 0.7818 0.9105 -27.8347 -23.1124 
0.0000 93.1000 0.0000 41.8510 -44.0166 -33.6082 -70.9122 0.9549 87.6116 115.3800 63.7676 -30.2044 -3.7910 14.7356 7.6081 -166.0704 26.9001 163.8207 -141.5900 63.6180 172.4770 0.5830 -14.6521 -26.7103 -83.3286 31.9709 -98.3178 25.9950 0.7450 -86.8316 0.3586 -0.1884 -0.2609 -1.6029 6.0538 43.7668 -66.7478 -43.0691 63.1774 13.3402 -14.4936 45.5821 0.6753 0.3150 1.0095 -62.8830 -5.6934 84.7639 -5.1688 46.8084 -18.9764 2.2011 -27.4107 -3.6570 7.7804 -18.3780 12.8107 -0.0181 -2.9582 75.8129 3.9791 52.6966 7.1598 -1.8819 -0.8850 0.7441 2.2172 -27.7212 -27.6908 
0.0000 93.1000 0.0000 41.8476 -41.7739 -31.7607 -70.8055 0.5188 87.6477 116.9417 64.1532 -29.0977 -4.9617 14.0947 8.1773 -167.1758 24.8783 165.8525 -139.4758 61.5913 168.7070 0.5143 -14.8513 -26.3183 -76.4696 33.8418 -98.3518 26.9602 -0.3313 -87.7612 0.0650 -0.4982 -0.0899 -2.1044 6.2676 40.0105 -68.0081 -43.9644 60.9951 11.3558 -11.2622 48.5951 -0.4991 0.6098 -0.2112 -69.0112 -2.8274 85.4531 -4.4170 40.8250 -18.0893 -1.7312 -15.0599 -1.4554 10.7839 -24.2288 8.2240 0.7069 -4.8368 71.8616 4.1637 58.0040 0.1717 -4.9155 -5.8650 0.1546 2.0556 -16.3244 -25.2693 
0.0000 93.1000 0.0000 37.7963 -40.6894 -34.0529 -71.5205 0.3314 87.7766 114.1882 65.0568 -24.0345 -6.0830 14.7638 7.9758 -171.0946 24.3339 169.8394 -140.4445 61.0250 167.8124 0.5963 -14.3383 -26.5634 -68.2300 36.4791 -98.2249 28.0702 0.8988 -85.7977 -0.2181 -0.4358 -0.1851 -2.1324 6.0747 39.2657 -69.9109 -40.5692 62.3320 11.9004 -9.3948 52.7215 -0.5392 0.5040 -0.3696 -68.2196 -0.5412 89.8784 -4.2428 41.8242 -15.6285 -7.3616 3.2415 0.8821 9.9949 -23.0374 -5.7308 1.1240 -3.1419 71.7566 2.0806 64.8735 -13.8236 -9.5085 -14.3882 0.8878 -0.5978 -9.3901 0.3380 
